<svg width="948" height="580" viewBox="0 0 948 580" fill="none" xmlns="http://www.w3.org/2000/svg">
<g clip-path="url(#clip0_107_2)">
<path d="M49.8978 61.6889C41.7267 63.0245 33.9857 64.36 26.2226 65.4952C9.05344 68.1129 -3.30795 50.9378 0.772082 30.2903C2.02917 23.8663 5.02854 21.2086 10.1782 21.9298C16.0005 22.7445 21.7677 24.267 27.601 24.8146C53.2611 27.2319 78.5352 23.5458 103.523 16.8013C120.328 12.2738 136.979 6.91827 153.685 1.88327C162.374 -0.787814 171.174 -0.0131988 179.974 0.467597C182.984 0.627862 183.635 2.76473 183.282 5.87655C182.455 12.4741 178.959 16.3739 174.25 19.1385C152.298 32.0826 129.071 41.5794 105.133 47.3986C97.9539 49.1482 90.7973 50.8042 83.5415 52.4202C81.4243 52.901 79.9687 53.6757 79.3622 56.7073C73.6281 85.1678 63.9243 112.146 58.3225 140.686C54.7167 159.25 51.0998 177.801 47.7145 196.432C47.1257 200.365 46.9773 204.377 47.2734 208.358C47.6483 215.904 51.5298 218.014 56.5692 213.367C61.4211 208.906 65.1152 203.016 68.9637 197.34C72.349 192.385 75.4807 187.177 78.7778 182.115C79.6379 180.779 80.3657 178.642 82.1521 179.577C83.6959 180.392 82.8358 182.248 82.6704 183.718C80.6228 201.816 74.9435 219.03 66.1297 233.854C63.4315 238.388 59.827 242.018 55.654 244.405C37.1946 254.996 21.47 242.962 19.7607 217.133C18.3824 196.392 22.1757 176.492 26.4321 156.726C32.9933 126.276 39.3228 95.7052 49.1039 66.4167C49.4668 64.8674 49.7322 63.2869 49.8978 61.6889V61.6889Z" fill="#FFC500"/>
<path d="M255.741 96.6667C255.741 101.768 255.741 106.884 255.741 111.985C255.741 113.414 255.178 115.525 256.942 115.805C258.365 116.032 259.148 114.229 259.545 112.8C261.75 105.254 263.702 97.6416 265.808 90.0958C266.183 88.7603 266.238 86.6234 268.014 86.9439C269.447 87.1977 269.954 88.8671 269.977 90.4831C270.219 104.506 268.973 118.129 260.813 129.12C253.48 139.003 246.312 137.427 241.802 125.408C241.063 123.444 240.7 120.453 238.847 120.146C236.807 119.812 236.278 122.91 235.44 124.66C229.397 137.134 221.193 146.977 211.621 155.578C209.133 157.863 206.243 159.421 203.176 160.132C200.11 160.842 196.949 160.685 193.94 159.673C190.932 158.661 188.157 156.821 185.832 154.297C183.507 151.772 181.694 148.632 180.536 145.12C175.068 128.338 173.172 110.161 175.022 92.2594C175.893 83.5383 181.087 80.4933 190.107 82.323C195.511 83.4181 197.33 87.358 196.216 95.9054C194.893 105.989 193.349 116.032 193.68 126.302C193.684 128.538 193.824 130.77 194.099 132.98C194.584 136.079 195.433 139.284 198.036 140.553C200.87 141.888 202.27 138.656 203.924 136.8C211.334 128.493 215.789 117.755 220.344 107.097C224.898 96.4397 229.463 85.3413 236.189 76.0459C239.895 70.9041 244.283 69.3682 249.521 71.652C254.318 73.7087 257.24 77.3547 256.579 84.1259C256.171 88.3062 256.171 92.5399 255.983 96.7468L255.741 96.6667Z" fill="#FFC500"/>
<path d="M273.207 87.6516C273.288 84.4433 273.509 81.2424 273.869 78.0624C274.972 70.4765 278.17 67.4582 284.345 69.5283C288.822 71.0374 291.711 69.8221 294.997 66.2562C302.374 58.2429 311.372 56.6403 320.767 58.9374C328.277 60.7804 335.654 63.4782 343.075 65.8555C345.228 66.4599 347.201 67.7724 348.776 69.6485C351.169 72.5866 352.25 76.0056 350.926 79.9054C349.68 83.5915 346.835 83.9121 343.979 83.9121C335.014 83.9121 330.945 80.3462 328.277 70.2628C326.27 62.6903 321.308 60.6202 315.827 65.1076C313.613 66.7053 311.755 68.9334 310.413 71.5983C303.984 86.2893 299.077 101.341 300.621 118.503C301.492 128.252 293.597 134.342 285.9 130.149C281.489 127.731 278.776 123.377 277.078 118.035C274.023 108.793 273.472 99.0972 273.207 87.6516Z" fill="#FFC500"/>
<path d="M372.716 249.586C374.469 249.707 376.675 249.72 378.858 250.027C388.231 251.363 393.579 258.842 392.62 269.152C392.341 271.634 391.66 274.025 390.614 276.186C389.568 278.347 388.18 280.236 386.528 281.743C384.876 283.251 382.994 284.347 380.991 284.969C378.987 285.591 376.902 285.725 374.855 285.366C370.275 284.584 365.907 282.53 362.092 279.362C358.278 276.195 355.12 272.001 352.867 267.109C349.934 261.099 351.059 256.718 356.175 253.259C361.292 249.8 366.761 250.107 372.716 249.586Z" fill="#E1242D"/>
<path d="M787.622 232.078C787.434 239.263 784.424 244.578 779.561 248.318C775.514 251.43 772.283 249.827 770.662 244.204C768.567 236.966 770.199 230.715 774.566 225.507C777.047 222.528 779.936 219.804 783.762 221.847C787.39 223.757 787.401 228.004 787.622 232.078Z" fill="#D91C26"/>
<path d="M440.709 408.436C447.822 400.81 454.912 393.157 459.996 383.261L461.242 384.49C455.77 394.012 449.189 402.523 441.702 409.758L440.709 408.436Z" fill="#D98324"/>
<path d="M461.242 384.49C468.266 374.74 473.658 363.629 479.293 352.731C488.732 334.487 498.249 316.284 510.411 300.417C515.164 294.22 520.259 288.397 527.173 285.726C538.883 281.252 546.338 287.93 545.345 302.648C544.419 316.564 542.611 330.387 541.409 344.277C540.279 355.748 540.124 367.33 540.945 378.84C541.199 381.872 541.309 385.678 543.989 386.854C546.878 388.189 548.631 384.797 550.219 382.54C559.78 368.904 566.65 353.158 573.663 337.612C578.835 326.126 583.587 314.334 588.572 302.741C591.406 296.184 594.879 290.174 600.36 286.434C609.181 280.424 616.294 283.015 621.024 293.793C624.266 301.165 625.071 309.392 626.538 317.365C628.633 328.624 630.519 339.936 632.548 351.208C633.309 355.468 634.235 359.649 639.065 359.074C643.894 358.5 647.886 354.146 647.765 348.951C647.711 345.169 648.375 341.422 649.706 337.999C669.666 284.707 694.259 234.142 723.069 187.163C725.837 182.609 729.035 178.522 733.71 177.133C739.312 175.477 744.34 177.133 748.045 182.716C749.894 185.243 750.998 188.442 751.186 191.81C751.373 195.179 750.634 198.528 749.082 201.333C745.873 207.771 742.113 213.821 738.485 219.951C725.265 242.338 713.073 265.589 701.963 289.599C701.269 291.095 700.684 292.684 699.758 294.942C719.11 295.476 736.765 298.574 740.327 328.13C742.675 319.529 744.561 311.876 746.877 304.424C749.192 296.972 751.839 289.639 754.54 282.361C757.385 274.668 760.33 266.975 765.149 260.698C767.178 258.027 769.438 255.356 772.746 257.306C775.69 259.055 775.79 262.648 775.536 266.027C774.907 274.521 772.327 282.374 770.022 290.347C768.49 295.689 766.152 300.818 766.924 308.097C771.802 302.444 775.933 295.917 779.175 288.745C791.284 260.905 809.14 237.338 831.002 220.338C839.151 214.008 847.742 209.373 857.931 211.51C869.52 213.954 875.574 222.315 873.545 233.8C871.34 246.314 858.372 257.012 849.054 253.98C846.341 253.099 845.657 251.149 846.462 247.957C847.896 242.254 845.36 241.907 841.765 243.056C837.334 244.621 833.314 247.553 830.098 251.563C816.458 267.71 805.409 286.074 798.12 307.522C797.814 308.326 797.57 309.162 797.392 310.02C796.653 313.813 794.238 318.541 797.193 321.225C800.7 324.417 804.129 320.344 806.864 317.592C817.367 306.833 827.018 294.908 835.689 281.973C840.018 275.649 844.662 269.65 849.594 264.01C854.237 258.668 859.364 256.211 865.594 258.949C872.045 261.793 874.923 268.297 875.585 275.87C876.324 284.444 876.158 293.152 876.688 301.766C877.294 312.317 880.172 313.973 887.34 308.057C895.864 301.005 901.444 290.695 907.255 280.785C909.361 277.152 911.456 273.493 913.32 269.686C915.349 265.546 918.205 264.545 921.766 265.853C925.328 267.162 928.383 270.06 927.986 274.815C925.78 301.112 919.737 325.566 901.135 342.1C890.461 351.555 878.529 350.38 867.37 342.607C860.048 337.519 853.409 331.028 848.756 322.24C847.223 319.342 846.297 319.302 844.345 321.599C838.644 328.183 832.998 334.888 826.47 340.297C815.443 349.445 803.6 353.305 790.544 347.535C780.487 343.088 775.304 333.646 773.044 319.89C768.893 330.786 764.171 341.349 758.907 351.515C756.316 356.363 753.647 361.158 749.777 364.71C744.616 369.452 740.79 368.009 739.158 360.517C738.504 356.789 738.011 353.022 737.68 349.231C736.235 349.338 736.18 351.115 735.706 352.29C724.547 379.335 706.528 397.404 684.177 409.718C679.316 412.425 674.021 413.793 668.672 413.725C659.134 413.538 651.514 409.157 647.445 398.152C646.166 394.693 645.24 393.892 642.384 396.323C638.008 399.997 633.166 402.781 628.049 404.563C619.084 407.862 611.751 404.563 606.623 395.054C600.514 383.675 599.136 370.667 598.11 357.579C597.812 353.826 597.945 350.019 597.493 346.293C597.085 342.941 597.934 337.612 594.802 337.038C591.67 336.464 591.196 341.752 590.237 344.891C586.719 356.31 583.698 367.969 579.474 379.067C573.85 393.839 567.543 408.089 558.28 420.082C551.995 428.202 544.706 434.065 535.322 435.841C519.884 438.793 509.143 430.312 505.824 411.615C502.703 394.012 505.085 376.73 508.482 359.528C509.751 353.513 510.574 347.371 510.941 341.178C511.073 338.627 511.47 335.288 508.868 334.313C506.541 333.445 504.688 335.716 503.42 337.906C497.907 347.388 493.893 357.939 490.188 368.49C483.075 388.697 476.305 409.104 467.031 428.042C453.104 456.436 433.387 478.218 411.895 497.877C371.095 535.206 324.45 556.08 274.884 568.301C234.602 578.237 193.779 583.312 152.858 577.73C105.651 571.279 64.0675 549.069 37.6024 498.933C10.0347 446.659 12.2401 392.436 37.8891 339.642C55.2678 303.89 80.5419 277.152 108.882 254.702C152.847 219.871 200.693 196.552 252.752 186.682C274.597 182.542 296.574 180.833 318.209 188.632C331.228 193.323 343.118 201.753 352.867 213.206C359.12 220.485 361.226 229.5 357.929 237.246C354.356 245.673 347.751 248.184 340.351 248.198C334.957 248.148 329.752 245.782 325.663 241.52C298.096 213.994 267.032 208.131 233.135 219.363C186.821 234.735 146.23 261.687 114.737 306.561C92.0542 338.881 78.0167 376.009 74.4881 418.266C71.7313 451.387 84.0486 475.694 106.665 492.936C123.548 505.851 142.415 512.315 161.933 515.867C185.565 520.13 209.56 520.58 233.289 517.203C234.866 515.093 236.597 514.211 238.549 516.468C271.388 512.635 302.97 502.592 333.757 488.542C371.426 471.447 405.797 447.407 436.464 415.621C438.272 413.738 439.959 411.722 441.702 409.758C441.999 408.016 442.708 406.415 443.742 405.151C450.082 398.887 453.975 389.605 461.242 384.49ZM678.101 380.764C690.826 371.853 701.402 359.061 708.778 343.662C709.775 341.299 710.477 338.769 710.862 336.156C711.965 330.04 709.98 325.833 705.216 323.495C701.258 321.546 697.034 321.385 692.877 320.691C689.69 320.17 687.815 321.506 686.481 325.111C682.875 334.781 678.762 344.21 675.344 353.946C673.05 360.538 671.518 367.481 670.79 374.58C670.591 382.874 672.719 384.637 678.101 380.764V380.764Z" fill="#1C244A"/>
<path d="M238.527 516.535C236.854 517.336 235.036 517.589 233.256 517.269C209.515 512.274 198.212 495.807 196.999 464.662C196.117 441.865 202.447 421.498 211.213 401.892C212.551 398.738 214.023 395.671 215.624 392.703C217.443 389.471 218.689 387.147 215.9 383.034C213.518 379.508 215.481 374.446 216.903 370.346C222.097 355.348 230.312 342.861 239.652 331.455C263.018 302.915 290.685 284.818 324.23 281.265C331.596 280.477 338.907 280.531 346.041 283.149C355.051 286.447 359.803 293.833 359.847 305.212C359.847 319.903 355.591 333.552 352.128 347.281C345.788 372.617 339.635 397.912 336.646 424.142C336.157 429.201 335.877 434.287 335.808 439.38C335.742 441.571 335.687 444.188 337.694 445.203C339.701 446.218 341.278 444.562 342.645 443.133C349.047 436.479 355.071 429.309 360.674 421.671C361.777 420.162 362.759 417.01 364.854 418.479C366.728 419.815 365.46 422.486 364.931 424.556C360.432 441.731 355.845 458.879 344.817 472.008C341.388 476.081 337.628 479.687 332.688 480.675C324.682 482.291 318.011 477.751 313.489 467.667C308.34 456.142 307.568 443.414 307.524 430.78C307.391 395.428 313.17 361.104 320.889 327.208C325.763 305.839 320.889 298.147 302.451 298.895C281.632 299.736 264.154 309.726 249.521 327.489C242.144 336.477 234.988 345.692 229.485 356.563C228.201 358.993 227.073 361.538 226.111 364.176C224.92 367.635 223.376 371.441 225.482 374.927C227.688 378.627 231.139 377.438 234.149 376.597C252.653 371.481 268.168 376.597 280.166 395.294C293.255 415.688 297.423 438.032 288.888 462.071C279.868 487.447 264.518 505.49 242.574 514.572C241.207 515.092 239.884 515.854 238.527 516.535ZM233.311 475.721C238.064 481.664 243.236 481.49 248.176 475.627C262.919 457.985 259.302 423.22 241.56 410.586C238.472 408.409 236.476 408.209 234.458 412.402C229.231 423.301 225.559 434.679 225.637 452.709C225.767 461.263 228.5 469.457 233.311 475.721V475.721Z" fill="#E1242D"/>
<path d="M440.709 408.436C429.241 417.972 416.891 425.05 403.096 428.015C384.747 431.955 368.493 420.843 363.398 400.77C360.994 391.221 362.295 381.832 365.163 372.723C369.827 358.099 376.19 344.677 385.287 333.365C387.492 330.694 387.492 329.358 385.1 326.687C380.148 321.105 380.909 315.576 387.305 314.04C411.498 308.217 434.722 310.661 454.019 331.402C466.458 344.757 467.847 361.465 459.985 383.194C455.728 394.079 448.803 401.892 440.709 408.436ZM436.574 361.505C438.235 354.8 436.839 349.262 432.384 344.891C425.095 337.705 416.56 334.019 407.429 332.016C405.489 331.589 404.221 332.016 404 334.754C403.239 344.103 399.369 351.942 396.226 360.129C392.918 368.797 389.951 377.598 388.584 387.054C387.349 395.521 389.191 398.059 396.303 397.992C410.296 397.898 432.56 377.705 436.574 361.505Z" fill="#E1242D"/>
<path d="M83.5965 160.853C84.9087 142.129 91.6573 123.337 102.927 106.843C104.868 104.025 106.048 102.53 102.927 99.2575C98.7256 94.9437 99.9055 89.1341 105.298 87.8787C126.249 82.9773 146.286 85.0741 163.234 102.783C169.95 109.795 172.232 119.264 170.258 129.962C166.95 147.738 157.842 160.853 146.859 172.325C137.784 181.808 127.705 189.487 116.038 193.534C98.1412 199.731 83.4862 186.121 83.5965 160.853ZM145.227 111.999C137.629 106.162 129.061 103.985 120.317 102.436C118.045 102.035 117.009 103.024 116.788 105.935C116.137 115.792 112.906 124.766 109.995 133.835C107.613 141.274 105.099 148.646 103.688 156.539C102.001 165.995 105.717 170.242 113.403 167.397C124.326 163.422 134.247 156.178 142.25 146.335C147.201 140.245 150.95 133.194 151.501 125.14C151.656 119.104 149.969 115.631 145.227 111.999Z" fill="#FFC500"/>
</g>
<defs>
<clipPath id="clip0_107_2">
<rect width="948" height="580" fill="white"/>
</clipPath>
</defs>
</svg>
