<svg width="96" height="50" viewBox="0 0 96 50" fill="none" xmlns="http://www.w3.org/2000/svg">
<g clip-path="url(#clip0_110_40)">
<path d="M5.05263 5.71133C4.22518 5.82416 3.44128 5.93699 2.65515 6.03289C0.916494 6.25404 -0.335291 4.80304 0.0778761 3.05868C0.205176 2.51597 0.50891 2.29144 1.03039 2.35237C1.62 2.42119 2.20401 2.54982 2.79473 2.59608C5.39322 2.8003 7.95262 2.48889 10.483 1.9191C12.1848 1.5366 13.871 1.08415 15.5627 0.65878C16.4427 0.43312 17.3338 0.498561 18.2249 0.53918C18.5297 0.55272 18.5956 0.733249 18.5599 0.996143C18.4761 1.55353 18.1221 1.88299 17.6453 2.11655C15.4223 3.2101 13.0702 4.01242 10.646 4.50404C9.91908 4.65185 9.19436 4.79176 8.45959 4.92828C8.24519 4.9689 8.09779 5.03434 8.03637 5.29047C7.45571 7.69489 6.47304 9.97406 5.90577 12.3852C5.54062 13.9536 5.17435 15.5208 4.83153 17.0948C4.77191 17.4271 4.75689 17.766 4.78687 18.1024C4.82483 18.7399 5.2179 18.9181 5.72822 18.5255C6.21955 18.1486 6.59364 17.651 6.98336 17.1715C7.32617 16.7529 7.64331 16.3129 7.97719 15.8852C8.06429 15.7724 8.13799 15.5919 8.31889 15.6709C8.47522 15.7397 8.38812 15.8965 8.37137 16.0206C8.16403 17.5496 7.58891 19.004 6.69637 20.2563C6.42313 20.6394 6.05812 20.9461 5.63554 21.1477C3.76623 22.0424 2.17386 21.0258 2.00078 18.8437C1.8612 17.0914 2.24533 15.4102 2.67636 13.7403C3.34078 11.1678 3.98175 8.58512 4.97223 6.11075C5.00899 5.97985 5.03587 5.84633 5.05263 5.71133Z" fill="white"/>
<path d="M25.8978 8.66663C25.8978 9.09764 25.8978 9.52978 25.8978 9.96079C25.8978 10.0815 25.8408 10.2598 26.0195 10.2835C26.1635 10.3027 26.2428 10.1504 26.283 10.0296C26.5064 9.39213 26.704 8.749 26.9173 8.1115C26.9553 7.99867 26.9608 7.81815 27.1406 7.84522C27.2858 7.86666 27.3372 8.0077 27.3394 8.14423C27.364 9.32894 27.2378 10.4798 26.4114 11.4084C25.6689 12.2434 24.943 12.1102 24.4863 11.0947C24.4115 10.9289 24.3746 10.6761 24.187 10.6502C23.9805 10.622 23.9269 10.8837 23.842 11.0316C23.2301 12.0854 22.3993 12.917 21.43 13.6436C21.178 13.8366 20.8854 13.9683 20.5748 14.0283C20.2643 14.0883 19.9442 14.0751 19.6395 13.9896C19.3348 13.9041 19.0538 13.7486 18.8184 13.5354C18.5829 13.3221 18.3994 13.0568 18.2821 12.7601C17.7284 11.3423 17.5364 9.80665 17.7238 8.29429C17.812 7.55751 18.3379 7.30025 19.2514 7.45483C19.7985 7.54735 19.9828 7.8802 19.87 8.60232C19.736 9.45419 19.5797 10.3027 19.6132 11.1703C19.6136 11.3592 19.6278 11.5477 19.6556 11.7345C19.7047 11.9963 19.7907 12.267 20.0542 12.3742C20.3412 12.4871 20.483 12.214 20.6505 12.0572C21.4009 11.3554 21.8521 10.4482 22.3133 9.54784C22.7745 8.64745 23.2368 7.70983 23.9179 6.92453C24.2931 6.49013 24.7376 6.36038 25.268 6.55332C25.7537 6.72708 26.0496 7.0351 25.9826 7.60715C25.9413 7.96031 25.9413 8.31798 25.9223 8.6734L25.8978 8.66663Z" fill="white"/>
<path d="M27.6666 7.90501C27.6748 7.63397 27.6971 7.36355 27.7336 7.09489C27.8452 6.45402 28.1691 6.19902 28.7944 6.37391C29.2478 6.5014 29.5403 6.39873 29.8731 6.09747C30.6202 5.42049 31.5314 5.28509 32.4828 5.47916C33.2432 5.63487 33.9903 5.86278 34.7418 6.06362C34.9598 6.11468 35.1595 6.22557 35.3191 6.38406C35.5614 6.63229 35.6709 6.92113 35.5369 7.2506C35.4107 7.56201 35.1226 7.58909 34.8334 7.58909C33.9255 7.58909 33.5135 7.28783 33.2432 6.43596C33.04 5.79621 32.5375 5.62133 31.9825 6.00044C31.7583 6.13542 31.5701 6.32365 31.4342 6.54879C30.7832 7.78993 30.2863 9.06153 30.4426 10.5114C30.5308 11.3351 29.7313 11.8496 28.9519 11.4953C28.5052 11.2911 28.2305 10.9232 28.0585 10.4719C27.7492 9.69112 27.6934 8.87197 27.6666 7.90501Z" fill="white"/>
<path d="M95.2306 31.1018C95.4819 30.9766 95.7577 30.8626 96 31.1233L95.2306 31.1018Z" fill="white"/>
<path d="M37.7434 21.5857C37.921 21.5958 38.1443 21.597 38.3654 21.6229C39.3146 21.7358 39.8561 22.3676 39.759 23.2387C39.7308 23.4483 39.6617 23.6503 39.5558 23.8329C39.45 24.0155 39.3093 24.175 39.1421 24.3024C38.9748 24.4298 38.7842 24.5224 38.5813 24.5749C38.3785 24.6274 38.1673 24.6388 37.96 24.6084C37.4962 24.5424 37.0539 24.3688 36.6676 24.1012C36.2813 23.8337 35.9615 23.4793 35.7334 23.066C35.4364 22.5583 35.5503 22.1882 36.0684 21.896C36.5865 21.6037 37.1404 21.6297 37.7434 21.5857Z" fill="#E1242D"/>
<path d="M79.7592 20.1066C79.7402 20.7136 79.4353 21.1627 78.9429 21.4786C78.5331 21.7415 78.2059 21.6061 78.0417 21.1311C77.8296 20.5196 77.9948 19.9915 78.437 19.5515C78.6883 19.2999 78.9809 19.0697 79.3683 19.2423C79.7357 19.4037 79.7368 19.7625 79.7592 20.1066Z" fill="#E1242D"/>
<path d="M44.6288 35.0058C45.349 34.3615 46.0671 33.715 46.5818 32.8789L46.708 32.9827C46.154 33.7871 45.4875 34.5062 44.7293 35.1175L44.6288 35.0058Z" fill="white"/>
<path d="M46.708 32.9828C47.4193 32.1592 47.9654 31.2204 48.536 30.2997C49.4919 28.7584 50.4556 27.2206 51.6872 25.8801C52.1685 25.3566 52.6844 24.8647 53.3846 24.639C54.5705 24.261 55.3253 24.8252 55.2248 26.0686C55.131 27.2443 54.9479 28.4121 54.8262 29.5855C54.7118 30.5547 54.6961 31.5331 54.7793 32.5055C54.805 32.7617 54.8161 33.0832 55.0875 33.1825C55.3801 33.2954 55.5576 33.0088 55.7184 32.8181C56.6866 31.6661 57.3822 30.3358 58.0924 29.0225C58.6162 28.0521 59.0975 27.0558 59.6022 26.0765C59.8892 25.5225 60.2409 25.0147 60.7959 24.6988C61.6892 24.1911 62.4095 24.41 62.8885 25.3205C63.2168 25.9433 63.2984 26.6384 63.4469 27.312C63.659 28.2631 63.85 29.2188 64.0555 30.1711C64.1325 30.531 64.2263 30.8842 64.7154 30.8357C65.2045 30.7871 65.6088 30.4193 65.5965 29.9804C65.591 29.6609 65.6583 29.3443 65.793 29.0552C67.8143 24.5529 70.3047 20.281 73.2222 16.3121C73.5025 15.9274 73.8263 15.5821 74.2998 15.4648C74.8671 15.3249 75.3763 15.4648 75.7515 15.9364C75.9386 16.1499 76.0505 16.4201 76.0695 16.7047C76.0885 16.9893 76.0135 17.2723 75.8564 17.5093C75.5315 18.0531 75.1507 18.5642 74.7833 19.0821C73.4446 20.9735 72.21 22.9378 71.0849 24.9662C71.0145 25.0926 70.9554 25.2269 70.8616 25.4175C72.8213 25.4627 74.6091 25.7244 74.9698 28.2214C75.2076 27.4947 75.3986 26.8482 75.6331 26.2186C75.8676 25.589 76.1356 24.9696 76.4092 24.3547C76.6973 23.7048 76.9954 23.0549 77.4834 22.5246C77.6889 22.2989 77.9178 22.0732 78.2528 22.238C78.5509 22.3858 78.561 22.6893 78.5353 22.9748C78.4717 23.6924 78.2104 24.3558 77.977 25.0294C77.8218 25.4807 77.585 25.914 77.6632 26.5289C78.1571 26.0513 78.5755 25.4999 78.9038 24.894C80.1301 22.5421 81.9382 20.551 84.1522 19.1148C84.9774 18.58 85.8473 18.1885 86.8791 18.369C88.0527 18.5755 88.6657 19.2818 88.4603 20.2522C88.2369 21.3094 86.9237 22.2132 85.9801 21.957C85.7054 21.8826 85.6362 21.7178 85.7177 21.4482C85.8629 20.9664 85.6061 20.937 85.242 21.0341C84.7933 21.1663 84.3862 21.414 84.0606 21.7528C82.6793 23.1169 81.5604 24.6683 80.8223 26.4804C80.7913 26.5483 80.7666 26.6189 80.7486 26.6914C80.6737 27.0118 80.4292 27.4113 80.7284 27.638C81.0835 27.9077 81.4308 27.5636 81.7078 27.3311C82.7714 26.4221 83.7486 25.4147 84.6267 24.322C85.0651 23.7876 85.5354 23.2808 86.0349 22.8044C86.505 22.3531 87.0242 22.1455 87.6551 22.3768C88.3084 22.6171 88.5998 23.1666 88.6668 23.8063C88.7417 24.5307 88.7249 25.2663 88.7785 25.9941C88.8399 26.8855 89.1314 27.0254 89.8572 26.5255C90.7204 25.9298 91.2854 25.0587 91.8739 24.2215C92.0872 23.9146 92.2994 23.6055 92.4881 23.2839C92.6936 22.9341 92.9828 22.8495 93.3435 22.9601C93.7041 23.0707 94.0135 23.3155 93.9733 23.7172C93.7499 25.9388 93.138 28.0047 91.2542 29.4016C90.1732 30.2004 88.965 30.1011 87.8349 29.4445C87.0935 29.0146 86.4212 28.4662 85.95 27.7238C85.7948 27.479 85.701 27.4756 85.5033 27.6696C84.926 28.2259 84.3543 28.7923 83.6932 29.2493C82.5765 30.0221 81.3772 30.3482 80.0551 29.8608C79.0367 29.4851 78.5119 28.6874 78.2829 27.5252C77.8626 28.4458 77.3845 29.3382 76.8514 30.197C76.589 30.6066 76.3187 31.0117 75.9268 31.3118C75.4042 31.7123 75.0167 31.5905 74.8514 30.9575C74.7852 30.6425 74.7353 30.3243 74.7018 30.0041C74.5555 30.0131 74.5499 30.1632 74.5019 30.2625C73.3718 32.5473 71.5472 34.0739 69.2837 35.1142C68.7916 35.3429 68.2553 35.4585 67.7137 35.4527C66.7478 35.4369 65.9761 35.0668 65.5641 34.1371C65.4346 33.8448 65.3408 33.7771 65.0515 33.9825C64.6084 34.2929 64.1181 34.5281 63.5999 34.6787C62.692 34.9574 61.9494 34.6787 61.4302 33.8753C60.8115 32.914 60.672 31.815 60.5681 30.7093C60.538 30.3922 60.5514 30.0707 60.5056 29.7559C60.4643 29.4727 60.5502 29.0225 60.2331 28.974C59.916 28.9254 59.868 29.3722 59.7708 29.6374C59.4146 30.6021 59.1086 31.5871 58.6809 32.5247C58.1114 33.7726 57.4727 34.9765 56.5347 35.9898C55.8982 36.6758 55.1601 37.1711 54.2098 37.3211C52.6465 37.5705 51.5588 36.854 51.2227 35.2744C50.9067 33.7873 51.1479 32.3273 51.4918 30.874C51.6203 30.3658 51.7037 29.847 51.7408 29.3237C51.7542 29.1082 51.7944 28.8261 51.5309 28.7438C51.2953 28.6704 51.1077 28.8623 50.9793 29.0473C50.4209 29.8484 50.0145 30.7398 49.6393 31.6311C48.919 33.3382 48.2334 35.0623 47.2943 36.6622C45.8839 39.061 43.8873 40.9013 41.7109 42.5621C37.5792 45.7157 32.8557 47.4793 27.8363 48.5117C23.7571 49.3511 19.6232 49.7799 15.4793 49.3083C10.6988 48.7633 6.48784 46.8869 3.80784 42.6513C1.01616 38.2351 1.2395 33.6542 3.83687 29.194C5.59674 26.1735 8.15614 23.9146 11.026 22.018C15.4781 19.0753 20.3234 17.1053 25.5952 16.2715C27.8073 15.9217 30.0328 15.7773 32.2237 16.4362C33.542 16.8325 34.7461 17.5447 35.7334 18.5123C36.3665 19.1272 36.5798 19.8888 36.2459 20.5433C35.8841 21.2552 35.2153 21.4673 34.466 21.4685C33.9197 21.4643 33.3926 21.2644 32.9786 20.9043C30.1869 18.5789 27.0412 18.0836 23.6086 19.0325C18.9186 20.3311 14.8081 22.6081 11.6189 26.3992C9.32195 29.1297 7.90043 32.2663 7.54309 35.8363C7.26393 38.6345 8.51124 40.688 10.8015 42.1446C12.5112 43.2357 14.4218 43.7818 16.3983 44.0819C18.7914 44.4421 21.2212 44.4801 23.6242 44.1948C23.7839 44.0165 23.9592 43.942 24.1569 44.1327C27.4823 43.8089 30.6805 42.9604 33.7982 41.7734C37.6128 40.3292 41.0934 38.2983 44.1989 35.6129C44.382 35.4538 44.5528 35.2834 44.7293 35.1176C44.7594 34.9704 44.8312 34.8351 44.9359 34.7283C45.5779 34.1991 45.9721 33.415 46.708 32.9828ZM68.6684 32.668C69.9571 31.9152 71.0281 30.8346 71.775 29.5336C71.8759 29.3339 71.947 29.1202 71.9861 28.8995C72.0977 28.3827 71.8967 28.0273 71.4143 27.8299C71.0134 27.6651 70.5857 27.6516 70.1648 27.5929C69.842 27.5489 69.6522 27.6617 69.5171 27.9664C69.1519 28.7833 68.7354 29.5799 68.3893 30.4024C68.157 30.9593 68.0018 31.5459 67.9281 32.1456C67.908 32.8463 68.1235 32.9952 68.6684 32.668Z" fill="white"/>
<path d="M24.1547 44.1384C23.9852 44.2061 23.8011 44.2275 23.6209 44.2004C21.2167 43.7784 20.0721 42.3872 19.9493 39.756C19.86 37.83 20.5009 36.1093 21.3887 34.453C21.5241 34.1866 21.6732 33.9275 21.8353 33.6767C22.0196 33.4037 22.1458 33.2073 21.8633 32.8598C21.6221 32.562 21.8208 32.1343 21.9649 31.7879C22.4908 30.5209 23.3227 29.4659 24.2686 28.5023C26.6348 26.0911 29.4365 24.5623 32.8334 24.2622C33.5793 24.1956 34.3197 24.2001 35.0422 24.4212C35.9545 24.6999 36.4358 25.3239 36.4403 26.2852C36.4403 27.5263 36.0092 28.6795 35.6586 29.8394C35.0165 31.9798 34.3934 34.1168 34.0908 36.3327C34.0412 36.7602 34.0129 37.1898 34.0059 37.6201C33.9992 37.8052 33.9936 38.0263 34.1969 38.1121C34.4001 38.1978 34.5598 38.0579 34.6982 37.9372C35.3465 37.375 35.9565 36.7693 36.524 36.124C36.6357 35.9965 36.7351 35.7302 36.9472 35.8543C37.1371 35.9672 37.0086 36.1928 36.955 36.3677C36.4994 37.8187 36.0349 39.2675 34.9182 40.3766C34.5709 40.7207 34.1902 41.0254 33.6899 41.1089C32.8792 41.2454 32.2036 40.8618 31.7458 40.0099C31.2243 39.0362 31.1461 37.9609 31.1417 36.8935C31.1283 33.9069 31.7134 31.0072 32.4951 28.1435C32.9886 26.3382 32.4951 25.6883 30.628 25.7515C28.5197 25.8226 26.7498 26.6666 25.268 28.1672C24.5209 28.9266 23.7962 29.7051 23.239 30.6235C23.109 30.8288 22.9948 31.0438 22.8973 31.2667C22.7767 31.5589 22.6204 31.8805 22.8336 32.1749C23.057 32.4875 23.4065 32.3871 23.7113 32.316C25.5851 31.8838 27.1563 32.316 28.3712 33.8956C29.6967 35.6185 30.1188 37.5062 29.2545 39.5371C28.3411 41.6809 26.7867 43.2053 24.5645 43.9725C24.426 44.0165 24.292 44.0808 24.1547 44.1384ZM23.6265 40.6903C24.1078 41.1924 24.6315 41.1777 25.1317 40.6824C26.6247 39.1919 26.2585 36.2549 24.4617 35.1875C24.1491 35.0036 23.947 34.9867 23.7426 35.341C23.2133 36.2617 22.8415 37.223 22.8493 38.7462C22.8625 39.4688 23.1392 40.1611 23.6265 40.6903Z" fill="#E1242D"/>
<path d="M44.6288 35.006C43.4674 35.8116 42.2168 36.4096 40.8198 36.6601C38.9617 36.9929 37.3157 36.0542 36.7998 34.3583C36.5564 33.5516 36.6881 32.7584 36.9785 31.9889C37.4508 30.7534 38.0951 29.6194 39.0164 28.6638C39.2397 28.4381 39.2397 28.3253 38.9974 28.0996C38.496 27.628 38.5731 27.1609 39.2208 27.0311C41.6707 26.5392 44.0224 26.7456 45.9766 28.4979C47.2362 29.6262 47.3769 31.0377 46.5807 32.8735C46.1497 33.793 45.4484 34.4531 44.6288 35.006ZM44.21 31.0411C44.3783 30.4747 44.2368 30.0068 43.7857 29.6375C43.0476 29.0305 42.1833 28.7191 41.2587 28.5498C41.0621 28.5137 40.9337 28.5498 40.9114 28.7811C40.8343 29.5709 40.4424 30.2332 40.1241 30.9249C39.7891 31.6572 39.4888 32.4007 39.3503 33.1995C39.2252 33.9149 39.4117 34.1293 40.132 34.1236C41.549 34.1157 43.8036 32.4097 44.21 31.0411Z" fill="#E1242D"/>
<path d="M8.46547 14.0894C8.59835 12.5076 9.28176 10.92 10.423 9.52658C10.6195 9.28851 10.739 9.16214 10.423 8.8857C9.99754 8.52126 10.117 8.03045 10.6631 7.92439C12.7847 7.5103 14.8137 7.68744 16.5301 9.18358C17.2101 9.77594 17.4413 10.5759 17.2414 11.4797C16.9064 12.9814 15.984 14.0894 14.8718 15.0587C13.9528 15.8598 12.9321 16.5085 11.7507 16.8504C9.93836 17.3739 8.4543 16.2242 8.46547 14.0894ZM14.7065 9.96211C13.9371 9.46904 13.0695 9.28512 12.184 9.15424C11.9539 9.12039 11.849 9.20389 11.8266 9.44986C11.7608 10.2825 11.4336 11.0408 11.1388 11.8069C10.8976 12.4353 10.643 13.0582 10.5 13.725C10.3292 14.5238 10.7055 14.8826 11.4838 14.6423C12.59 14.3065 13.5946 13.6945 14.405 12.863C14.9064 12.3485 15.2861 11.7527 15.3419 11.0724C15.3575 10.5624 15.1867 10.269 14.7065 9.96211Z" fill="white"/>
</g>
<defs>
<clipPath id="clip0_110_40">
<rect width="96" height="49" fill="white" transform="translate(0 0.5)"/>
</clipPath>
</defs>
</svg>
