<svg width="24" height="33" viewBox="0 0 24 33" fill="none" xmlns="http://www.w3.org/2000/svg">
<path d="M11.9602 5.32936C8.52931 5.32936 5.10192 5.35382 1.67453 5.3049C1.02818 5.3049 -0.03742 5.8674 0.00101153 4.3546C0.0359492 3.0654 0.154738 1.96835 1.7479 1.90896C3.34106 1.84956 5.0006 1.90896 6.63918 1.888C7.06192 1.888 7.74321 2.10112 7.79562 1.46176C7.94235 -0.348017 9.24553 0.0397913 10.3496 0.0258162C11.5724 0.0258162 12.7952 0.0467788 14.011 0.0258162C14.9753 0.00135981 15.9151 -0.0894782 16.0025 1.28707C16.0514 2.06269 16.7012 1.91944 17.1939 1.91944C18.7067 1.91944 20.216 1.89848 21.7358 1.91944C23.5455 1.95787 24.3421 3.1178 23.8635 4.84373C23.6364 5.66826 23.025 5.3049 22.5987 5.3084C19.0491 5.34334 15.5029 5.32936 11.9602 5.32936Z" fill="#1C244A"/>
<path d="M12.0194 6.6038C15.1638 6.6038 18.3082 6.63874 21.4247 6.58284C22.4134 6.58284 22.8746 6.68416 22.7837 7.86506C22.1828 15.5024 21.6285 23.1445 21.1207 30.7912C21.0229 32.2865 20.3241 32.8036 18.9091 32.7931C14.2624 32.7605 9.61687 32.7605 4.97248 32.7931C3.54702 32.7931 2.84826 32.283 2.75044 30.7982C2.23802 23.1561 1.68717 15.5153 1.09788 7.87554C1.00705 6.7191 1.4263 6.56188 2.44648 6.57935C5.62931 6.64223 8.82262 6.6038 12.0194 6.6038ZM13.375 11.7082C13.375 10.6601 13.1234 10.0591 11.9356 10.0556C10.7477 10.0522 10.4822 10.6775 10.4996 11.7117C10.5648 17.162 10.6114 22.6111 10.6394 28.0591C10.6394 29.0024 10.7652 29.9073 11.9426 29.9038C13.12 29.9003 13.2422 28.9989 13.2387 28.0556C13.2248 25.3898 13.3331 14.4892 13.375 11.7082ZM7.46004 11.7362C7.4286 10.6112 7.11067 9.98927 5.85291 10.0591C4.59515 10.129 4.54274 10.9116 4.60563 11.8689C4.962 17.3728 5.30439 22.8766 5.6328 28.3805C5.68171 29.219 5.84592 29.9282 6.85213 29.9247C7.9352 29.9247 8.13784 29.226 8.12386 28.2757C8.08543 25.5505 7.54389 14.5242 7.46004 11.7362ZM15.7543 28.3281C15.7543 29.191 15.9255 29.8828 16.9037 29.9177C17.8261 29.9492 18.1824 29.3797 18.2348 28.4713C18.5586 22.9139 18.908 17.3565 19.283 11.799C19.3493 10.7928 19.2061 10.0976 17.9658 10.0522C16.8059 10.0137 16.4635 10.5553 16.4286 11.6209C16.3272 14.4683 15.7892 25.6029 15.7543 28.3281Z" fill="#1C244A"/>
</svg>
